<?xml version="1.0" encoding="UTF-8"?>
<!DOCTYPE svg PUBLIC "-//W3C//DTD SVG 1.1//EN" "http://www.w3.org/Graphics/SVG/1.1/DTD/svg11.dtd">
<!-- Creator: CorelDRAW 2019 (64 Bit) -->
<svg xmlns="http://www.w3.org/2000/svg" xml:space="preserve" width="135.467mm" height="203.2mm" version="1.1" style="shape-rendering:geometricPrecision; text-rendering:geometricPrecision; image-rendering:optimizeQuality; fill-rule:evenodd; clip-rule:evenodd"
viewBox="0 0 13546.66 20320"
 xmlns:xlink="http://www.w3.org/1999/xlink">
 <defs>
  <style type="text/css">
   <![CDATA[
    .fil0 {fill:#000102}
    .fil2 {fill:#EAECEE}
    .fil1 {fill:#FAFBFD}
   ]]>
  </style>
 </defs>
 <g id="Camada_x0020_1">
  <metadata id="CorelCorpID_0Corel-Layer"/>
  <g id="_2456145690288">
   <path class="fil0" d="M1470.37 11923.62c229.21,20.08 2197.9,-4.93 2254.45,10.98 46.4,13.05 7.2,-7.21 37.7,18.55 9.05,6.34 5.47,0.39 21.79,21.29 102.7,131.54 130.3,268.78 415.5,429.77 135.95,76.74 545.11,211.61 716.52,155.49 57.75,-48.05 53.34,-138.4 81.68,-204.64 120.66,13 384.97,177.45 800.03,67.39 410.14,-108.75 32.39,-119.6 451.59,-2.46 407.05,113.74 640.04,-38.25 811.08,-67.91 23.91,99.01 27.58,162.82 75.3,199.23 121.99,89.79 624.21,-92.36 723.8,-148.68 296.97,-167.94 335.29,-344.6 438.27,-470.79l2253.68 -2.18c6.12,-163.07 -9.85,-81.98 -82.96,-137.28 24.12,-138.78 37.44,-233.49 28.14,-389.62 -11.33,-190.09 -89.03,-161.78 -182.28,-236.87 -123.48,-99.43 4.25,-380.77 -456.79,-405.69 -42.75,-52.25 -82.63,-217.81 -427.63,-72.31 -134.5,56.73 -255.57,172.57 -316.44,292.88 -147.05,-12.78 -150.56,-61.32 -280.52,40.77 -337.2,264.89 -298.88,441.95 -326.93,787.42l-156.13 -0.55c7.58,-112.18 52.76,-258.57 66.46,-391.41 16.1,-156.19 -23.57,-304.42 -10.88,-433.16 404.75,-162.71 587.4,-676.8 516.05,-1246.6 89.16,44.17 117.04,75.31 176.56,-25 54.2,-91.32 60.96,-111.33 30.39,-222.01 283.08,4.48 276.17,-285.4 278.41,-542.65 1.16,-132.6 -0.12,-271.34 -10.04,-403.47 -16.47,-219.13 24.08,-215.7 -175.54,-244.93 89.17,-43.55 95.73,-2.11 156.79,-78.89 18.81,-396.54 -199.71,-1336.27 -423.65,-1705.27 -22.89,-37.71 -33.99,-56.5 -59.9,-93.29l-45.68 -77.71c-111.27,-53.58 -76.7,-92.9 -261.23,-87.09l-67.73 12.91c-58.92,39.9 -203.02,94.11 -273.91,134.81 -92.15,52.89 -187.83,115.2 -270.78,169.8l-499.72 354.81 -39.98 -313.9 -396.11 648.92c-46.13,67.78 -87.81,146.21 -134.33,221.23l-361.37 32.13c-40.76,-1.92 -73.85,-10.68 -123.6,-9.62 -69.77,1.49 -164.92,18.31 -226.94,44.61 -84.08,35.65 -106.85,80.86 -162.55,131.49 -92.88,-59.53 -106.45,-158.06 -373.15,-174.87 -109.68,-6.92 -131.18,12.01 -237.09,-1.7 -85.27,-11.04 -182.96,-17.83 -269.86,-18.81l-525.36 -866.26c-2.24,4.27 -4.56,6.12 -5.28,13.47 -0.74,7.45 -3.99,10.19 -4.92,13.8 -78.15,304.08 99.92,388.11 -352.9,53.51 -104.78,-77.42 -230.3,-163.97 -344.39,-231.57 -116.75,-69.17 -241.12,-145.69 -381.27,-194.08 -211.76,-73.12 -296.73,29.02 -380.67,150.43 -146.02,211.21 -254.68,534.76 -331.38,820.6 -45.8,170.65 -210.38,842.25 -132.51,989.38 42.2,47.41 86.11,31.14 139.22,65l-139.37 14.39c-45.06,123.46 -46.89,539.11 -41.28,698.38 9.23,262.35 7.75,467.27 279.04,475.3 -34.79,95.68 -33.99,119.04 24.26,214.09 72.08,117.61 103.68,62.89 180.53,22.44 -24.34,287.96 -44.72,463.95 80.61,783.58 98,249.95 218.35,354.24 436.72,476.12 7.46,121.01 -18.8,286.25 -11.1,433.19 7.78,148.62 56.2,264.93 68.22,386.34l-372.28 3.32c29.9,-79.76 81.8,-103.51 113.62,-229.03 51.15,-201.81 17.88,-361.79 -112.9,-515.9 -84.42,-99.49 -106.77,-95.1 -252.9,-103.21 -54.12,-64.99 -71.92,-129.5 -112.99,-191.1 -48.68,-73.04 -94.38,-115.55 -159.05,-163.34 -66.15,-48.89 -131.25,-75.4 -221.56,-99.99 -115.4,-31.42 -134.96,14.38 -200.67,84.13 -96.93,-0.32 -263.48,-62.19 -414.23,126.13 -33.65,42.04 -76.5,151.05 -112.04,175.61 -65.82,45.46 -122.44,13.93 -190.47,97.54 -70.79,87 -100.81,345.71 -90.41,479.53 18.64,239.76 179.87,225.86 237.32,342.32l-335.84 1.87 -14.24 108.89z"/>
   <path class="fil1" d="M5358.34 7896.46c-135.28,-32.39 -219.38,-139.13 -362.66,-181.89 74.23,108.73 209.82,161.68 269.38,282.75 -291.66,-61.04 -396.21,-101.03 -741.18,-100.77 -352.46,0.27 -435.8,-22.12 -525.92,344.32 305.86,-18.8 426.66,-80.93 772.03,-49.62 9.1,0.82 52.23,6.44 58.79,8.5l42.53 20.18c3.84,2 9.57,5.26 13.64,8.83 -272.21,107.25 -563.62,253.49 -839.4,375.84 -157.06,69.68 -148.07,48.52 -173.33,250.78 148.25,-26.66 233.51,-67.34 398.82,-61.16 -90.91,108.86 -348.11,141.02 -431.88,252.43 -27.67,54.09 -74.94,340.88 29.76,327 87.53,-11.61 334.06,-136.5 419.32,-170.5 127.4,-50.8 358.04,-165.37 481.27,-188.6 -54.78,79.21 -176.34,183.88 -244.82,255.33l-484.44 497.99c-124.95,126.37 -118.87,113.32 -138.84,347.48 85.92,-42.52 496.71,-523.65 845.28,-625.36l60.6 -0.54c-108.81,81.04 -308.83,259.14 -361.22,380.25 88.21,-17.68 130.52,-57.08 224.71,-52.95 -444.46,393.02 -1043.14,1179.87 -844.52,1893.64 67.49,242.53 226.9,481.29 415.23,557.47 -85.85,-300.79 -212.06,-463.19 -72.77,-915.86 89.06,-289.41 244.38,-506.86 400.8,-689.13 -243.46,438.27 -477.03,956.18 -177.46,1446.51l70.57 74.93c-11.96,-313.56 -32.28,-447.38 87.42,-721.89 71.85,-164.77 237.99,-389.56 362.4,-455.48 -24.12,58.35 -110.73,151.22 -160.4,234.39 -49.15,82.3 -91.23,183.2 -116.51,289.28 -74.88,314.28 -14.49,442.03 58.1,705.31l155.04 -474.36c55.93,-118.74 194.18,-303.46 293.74,-334.73 -128.75,123.52 -307.47,565.81 -229.08,744.19 51.93,-93.46 72.34,-176.7 132.3,-280.41 110.56,-191.22 226.54,-329.84 442.59,-402.37 97.11,-32.59 218.78,-92.38 322.36,-106.66l-29.92 130.59c201.84,30.75 276.01,93.73 487.18,-7.66l-22.53 -123.98c221.81,49.06 452.93,142.26 578.74,262.39 63.32,60.46 125.7,143.13 176.59,230.31 23.57,40.38 46.73,83.18 70.26,132.5l76.58 147.59c13.69,-485.23 -134.49,-540.17 -219.91,-718.78 340.81,182.51 311.8,588.22 424.16,795.85 107.41,-158.41 120.17,-509.76 63.23,-720.64 -31.8,-117.76 -75.98,-208.01 -128.7,-295.32 -62.39,-103.33 -127.12,-164.59 -180.07,-243.12 164.44,160.1 283.18,243.56 391.84,471.89 136.87,287.62 94.92,434.35 93.62,752.93 294.83,-295.48 228.35,-818.54 73.94,-1192.11 -46.87,-113.41 -140.92,-245.2 -171.68,-338.86 111.32,190.56 265.53,272.61 395.06,692.63 107.71,349.28 55.37,616.55 -76.4,906.82 164.16,-49.9 348.97,-324.41 409.82,-532.24 95.84,-327.35 53.63,-498.42 -51.97,-793.2 -273.88,-764.57 -653.93,-939.78 -786.19,-1125.45 103.9,7.46 150.6,40.14 235.99,64.97 -50.69,-115.01 -184.05,-227.92 -276.47,-313.28 -42.67,-39.41 -68.61,-51.99 -104.65,-88.74 161.14,16.34 400.4,192.34 499.62,269.54 131.88,102.6 309.06,299.97 409.39,369.62 -1.4,-291.57 -115.51,-348.76 -382.67,-599.92 -106.31,-99.94 -424.07,-404.51 -481.67,-504.25l941.92 378.79c19.03,-88.62 14.98,-173.5 6.35,-255.5 -13,-123.58 -15.55,-110.81 -115.54,-156.28 -70.6,-32.11 -287.79,-133.84 -335.47,-180.1 140.5,-23.13 279.35,36.12 396.11,57.35 6.71,-249.3 -154.75,-241.44 -443.74,-374.89 -158.48,-73.19 -435.49,-178.96 -561.88,-261.58 137.75,-100.28 707.65,3.31 883.14,23.37 -13.7,-67.4 -95.9,-271.8 -134.5,-302.77 -52.42,-42.05 -298.78,-43.2 -382.15,-43.58 -480.89,-2.17 -517.43,79.48 -752.81,97.28 109.59,-141.92 185.05,-172.27 279.25,-280.59 -146.26,36.73 -226.69,156.66 -373.21,182.7 30.22,-125.44 102.32,-116.05 107.46,-271 -169.68,4.86 -166.51,70.85 -261.04,186.83 -59.43,72.93 -141.15,191.52 -203.52,234.1l81.01 -402.96c-239.92,11.6 -279.71,195.54 -384.22,364.56 -125.48,-132.86 -131.79,-375.53 -387.49,-360.96l82.34 403.58c-78.1,-36.92 -290.91,-338.17 -352.85,-420.11l-117.7 -3.34c9.47,161.03 88.13,150.17 103.1,269.9z"/>
   <path class="fil2" d="M7341.33 7248.66l-4.06 -183.86c-54.33,46.14 -299.28,429.82 -327.06,516.56 109.97,-23.95 196.71,-77.5 324.67,-103.15 294.13,-58.95 393.83,-318.6 793.88,-525.2 -56.86,80.24 -124.63,116.03 -168.35,224.89l302.11 -248.66c711.17,-542.53 485.8,313.85 502.5,707.31l127.04 0.01 32.1 338.45c-77.07,22.15 -91.03,14.19 -149.12,58.17l37.97 17.98c89.44,24.72 92.35,-18.89 97.36,118.06 -128.77,23.03 -356.3,85.21 -338.04,232.89 171.52,54.48 357.94,-1.19 370.19,191.12l-231.38 5.41c184.95,103.39 263.2,98.51 189.13,374.74 -113.02,-24.01 -182.24,-103.18 -303.2,-129.98 27.61,94.87 100.59,104.39 139.23,188.85 -45.24,55.89 -63.29,61.68 -104.32,128.84 -61.03,99.9 -33.78,89.5 -117.8,67.66 -43.03,123.58 -97.22,189.29 -2.83,285.77 25.13,25.69 108.35,70.04 117.85,89.19 37.97,76.6 -58.06,74.88 -91.72,87.94l63 49.48 -100.67 266.17c-47.13,-27.72 -75.54,-68.27 -133.57,-95.38 35.04,180.74 235.25,382.56 86.17,523.12l-40.3 -45.48c-3.57,-3.35 -7.82,-6.87 -11.3,-9.98 -3.69,-3.29 -9.23,-7.42 -12.37,-10.12 -3.24,-2.78 -8.31,-7.24 -12.92,-10.23l12.48 235.61c-87.7,-47.2 -97.82,-103.84 -176.27,-144.13 22.48,143.27 67.87,287.52 139.08,394.99 123.02,-5.06 239.92,-149.66 292.35,-234.09 72.43,-116.65 113.37,-239.09 140.59,-382.89 89.09,-470.53 -63.67,-514 -134.33,-886.02 110.74,39.98 174.83,135.47 280.18,180.9 -56.11,-115.96 -168.82,-225.33 -161.29,-404.99 128.62,42.17 327.83,201.94 446.1,220.95 94.9,-124.71 71.35,-664.86 43.63,-843.08l-628.6 -132.01c70.18,-96.63 486.43,-150.15 614.74,-229.69 30.18,-415.99 -310.1,-1555.89 -526.67,-1721.69 -177.03,-135.52 -1128.69,578.53 -1242.74,693.12 -43.23,43.44 -82.86,120.97 -133.44,142.45z"/>
   <path class="fil1" d="M3421.11 8354.92c-157.99,71.49 -585.01,107.08 -621.58,160.97 -58.5,125.4 -11.25,692.07 27.74,824.7 116.34,-11.01 331.72,-179.41 463.19,-223.56 -14.26,213.22 -106.38,297.04 -185.06,423.33 110,-60.97 195.55,-158.19 304.2,-207.37 -73.64,358.77 -225.15,438.37 -143.65,872.87 53.84,287.06 194.2,580.82 428.19,645.33l149.69 -407.6c-94.04,66.89 -105.09,113.15 -175.5,150.34l13.05 -246.93c-44.43,36.59 -41.8,61.24 -91.01,90.4 -111.93,-306.12 106.22,-348.55 92.98,-530.96l-123.21 98.71 -106.76 -260.21 62.96 -59.99c-34.6,-7.61 -115.2,17.93 -92.87,-70.8 11.85,-47.1 41.9,-32.05 111.64,-97.6 103.24,-97.04 60.82,-153.48 6.88,-281.1 -61.21,-24.21 -32.76,64.13 -116.37,-69.49 -38.03,-60.79 -85.88,-101.58 -105.38,-156.05 61.4,-42.43 111.91,-95.97 140.11,-166.19 -120.59,27.02 -187.63,99.1 -291.14,127.01 -126.51,-178.66 20.66,-323.55 177.36,-368.7l-230.47 -5.46c3.98,-205.35 191.52,-127.17 368.76,-197.13 18.45,-160.33 -199.43,-180.15 -303.12,-226.76 -24.97,-11.23 -21.5,-9.7 -35.95,-20.96l4.91 -88.64 133.65 -5.78c-29.59,-61.88 -64.54,-63.5 -146.87,-76.71 -5.08,-103.41 2.18,-243.33 31.44,-336.87l127.83 -6.84c-9.38,-92.51 -47.58,-359.6 -37.32,-433.43 0.73,-274.46 66.09,-586.15 355.29,-395.04 96.93,64.05 171.32,112.78 257.95,182.95 79.94,64.74 157.72,158.16 241.69,212.27 -46.8,-92.58 -171.07,-214.54 -189.07,-259.65 18.14,23.02 192.09,129.58 247.01,170.61 86.88,64.91 165.82,129.32 246.86,193.65 180.65,143.38 116.11,134.29 278.69,163.79 144.76,26.28 220.36,75.32 342.35,107.5 -24.77,-76.56 -276.97,-485.78 -322.56,-508.96l-1.84 177.74c-45.86,-27.81 -174.81,-181.6 -360.9,-316.2 -227.98,-164.88 -554.74,-403.57 -819.13,-518.26 -196.39,-85.19 -251.39,19.92 -370.12,261.52 -159.33,324.22 -311.52,909.74 -349.9,1307.2 -22.28,230.69 -66.79,121.96 494.88,316.05l110.48 56.3z"/>
   <path class="fil0" d="M5828.87 9250.61c-71.65,-62.8 -201.93,-416.6 -612.5,-416.13 25.53,61.47 103.81,83.8 195.37,241.15 52.35,89.97 110.86,216.15 110.17,341.35 -121.19,-97.28 -330.45,-198.96 -455.31,-96.86 167.75,135.64 180.74,80.43 293.05,281.84 116.26,208.48 74.39,237.42 -3.3,429.71 47.9,-27.66 82.1,-63.21 121.19,-97.05 82.31,-71.27 52.52,-39.05 159.73,-72.64l-24.89 -184.58c64.01,6.43 83.32,41.82 150.41,64.32l-30.37 -123.1c77.97,20.61 83.58,42.69 163.06,39.01 24.62,-50.68 15.25,-63.75 11.25,-123.33 69.17,26.6 56.67,41.53 124.21,65.15 53.78,-26.31 65.98,-45.84 113.74,-69.18l3.02 126.07c92.81,8.57 93.77,-21.11 174.45,-38.94l-35.34 123.37 153.11 -72.11 -26.51 192.24c108.41,33.29 92.28,6.27 166.54,78.69 43.18,42.12 75.59,65.76 121.28,99.6 -17.11,-61.67 -66.02,-118.07 -75.97,-197.39 -10.5,-83.68 34.27,-172.32 66.48,-233.52 98.56,-187.31 192.32,-198.31 298.77,-288.16 -170.64,-141.07 -463.32,98.19 -463.36,98.21 14.5,-121.92 52.74,-239.26 111.53,-336.94 108.42,-180.18 161.92,-168.41 203.07,-245.97 -401.52,-11.73 -550.42,362.15 -619.6,416.27 16.12,-287.25 83.92,-405.51 182.76,-605.5 -249.18,77.25 -305.96,271.99 -373.97,392.77 -38.64,-49.23 -30.98,-117.29 -142.58,-236.75 -52.03,-55.7 -154.41,-134.68 -243.2,-155.61 112.28,179.29 180.19,367.96 183.71,604.01z"/>
   <path class="fil2" d="M5046.25 12222.64c687.16,240.02 817.34,-16.78 972.24,-31.59 22.11,-2.12 293.51,126.03 469.34,131.63 240.32,7.65 333.95,-43.05 518.85,-95.18 -38.09,-233.79 -301.23,-623.59 -529.38,-615.29 76.99,65.34 228.1,243.34 222.71,390 -69.47,-67.76 -267.52,-245.78 -418.39,-260.22 44.08,78.54 97.25,154.26 104.85,274.11 -122.21,-125.04 -260.37,-512.79 -558.51,-206.77 -99.26,101.88 -90.04,143.86 -158.21,194.21 15.85,-147.75 51.15,-169.49 104.59,-258.52 -115.9,2.65 -245.07,103.04 -325.55,176.34 -52.77,48.06 -37.14,51.51 -99.53,79.43 34.26,-213.88 138,-284.34 227.42,-392.24 -250.65,14.55 -477.32,372.71 -530.43,614.09z"/>
   <path class="fil0" d="M5720.94 11085.31c91.38,3.86 124.43,-28.41 160.52,-88.8 -29.12,-60.95 -39.91,-36.6 -66.72,-97.06 83.05,2.6 124.22,47.11 111.83,144.72 -15.1,119.05 -96.37,94.09 -200.25,85.1 44.95,287.06 541.86,303.41 600.32,-0.41 -94.53,10.65 -160.94,29.91 -189.05,-53.72 -35.61,-105.98 12.78,-164.44 102.52,-179.26 -24.06,72.66 -32.25,45.79 -66.45,100.63 25.68,51.7 61.72,88.9 140.66,93.69 69.7,-62.94 141.96,-240.34 75.31,-368.03 -64.08,-122.74 -218.29,-84.52 -359.04,-83.71 -135.24,0.78 -285.03,-46.09 -361.29,80.58 -69.15,114.85 4.07,293.35 51.64,366.27z"/>
   <path class="fil0" d="M4777.65 9744.48l113.54 -36.75c-62.07,135.45 -79.56,139.22 -26.95,306.65l-86.62 16.94c116.44,239.74 591.3,137.45 570.97,-166.74 -20.71,-309.81 -470.62,-406.87 -570.94,-120.1z"/>
   <path class="fil0" d="M7271.24 10048.25c-29.54,-24.89 -65.87,-23.29 -82.85,-33.87 53.51,-144.15 37.74,-178.92 -25.31,-303.23l115.03 32.82c-40.96,-90.64 -157.47,-194.22 -312.89,-168.67 -117.32,19.29 -234.11,140.9 -254.87,255.5 -58.41,322.57 387.98,436.85 560.89,217.45z"/>
   <path class="fil1" d="M2919.14 11810.97c-50.14,-282.44 -495.66,-397.8 -782.91,-187.9 -30.98,22.65 -88.69,73.46 -100.31,109.82 -39.51,123.57 133.17,80.46 286.63,80.35 196.89,-0.14 400.54,5.28 596.59,-2.27z"/>
   <path class="fil1" d="M2678.15 10787.17c-154.66,99.41 -267.83,609.86 -7.45,508.85 101.15,-39.24 236.88,-101.32 184.28,-237.06 -25.21,-65.05 -118.03,-243.58 -176.83,-271.79z"/>
   <path class="fil1" d="M9558.5 11403.39c113.54,-156.5 47.64,-368.29 -24.06,-521.84 -68.94,16.91 -248.68,265.18 -254.92,282.15 -41.76,113.56 138.99,255.93 278.98,239.69z"/>
   <path class="fil1" d="M9116.29 11807.92l744.75 4.3c-43.54,-99.34 -238.35,-177.72 -375.13,-181.67 -176.46,-5.1 -314.54,62.66 -369.62,177.37z"/>
   <path class="fil0" d="M6712.09 10173.6c48.36,79.34 189.63,41.49 410.55,239.39 124.77,111.77 211.06,223.87 329.45,326.79 -39.77,-143.58 -183.53,-319.97 -276.52,-381.1 48.13,-86.76 139.69,-95.48 180.1,-224.71 -93.83,42.35 -163.34,101.86 -306.22,81.64 -127.9,-18.09 -185.98,-54.25 -337.36,-42.01z"/>
   <path class="fil0" d="M4874.98 10336.12c-68.66,118.64 -209,194.82 -269.89,395.81 61.52,-34.06 84.59,-91.5 162.2,-169.38 80.62,-80.89 256.63,-238.84 359.74,-284.11 54.37,-23.87 189.95,-59.48 218.8,-102.15 -137.34,-18.85 -215.1,17.7 -334.19,37.52 -171.02,28.47 -207.06,-35.78 -316.63,-81.86 52.01,121.08 82.68,129.94 179.97,204.17z"/>
   <path class="fil1" d="M10061.07 11043.33c-56.68,49.03 -63.09,139.89 -145.38,264.9 -26.26,39.89 -195.32,224.7 -76.26,241.99 94.92,13.78 238.47,-79.94 261.19,-141.02 21.48,-57.72 48.47,-291.27 -39.55,-365.87z"/>
   <path class="fil1" d="M2139.29 10825.86c-19.36,8.15 -324.96,356.47 72.22,538.68 163.89,75.18 40.87,-159.85 20.55,-209.15 -48.97,-118.77 -56.46,-228.26 -92.77,-329.53z"/>
   <path class="fil2" d="M3203.08 11222.48c-50.44,36.63 -86.57,190.8 -133.92,249.71 -29.52,36.74 -80.62,69.22 -58.3,121.9 10.02,23.66 88.7,78.82 115.2,91.28 212.54,99.9 210.34,-385.53 77.02,-462.89z"/>
   <path class="fil2" d="M9061.1 11610.03c-10.26,-80.56 -49.13,-110.37 -76.17,-181.49 -29,-76.27 -15.32,-145.52 -34.5,-218.34 -193.92,33.68 -300.94,679.01 110.67,399.83z"/>
   <path class="fil1" d="M1729.88 11269.76c-50.57,159.26 68.93,414.09 188.25,338.73 79.01,-49.9 -7.03,-141.58 -40.86,-183.83 -64.52,-80.57 -87.83,-139.97 -147.39,-154.9z"/>
   <path class="fil1" d="M10093.42 11810.44c124.29,5.16 183.78,20.85 232.8,-74.58 28.28,-55.05 42.28,-119.62 37.28,-192.95 -58.72,19.56 -53.49,41.29 -149.51,114.21 -53.52,40.63 -115.22,64.61 -120.57,153.32z"/>
   <path class="fil1" d="M5245.39 9885.2c-138.02,4.78 -48.07,33.1 -145.78,78.17 -112.24,-23.28 -24.17,-81.26 -165.68,-82.35 3.75,246.82 324.18,230.35 311.46,4.18z"/>
   <path class="fil1" d="M6803.44 9883.82c27.4,247.84 315.68,235.55 315.92,-8.31 -152.42,27.46 -58.77,68.11 -143.86,84.89 -103.26,20.36 -6.86,-57.69 -172.06,-76.58z"/>
  </g>
 </g>
</svg>
